<svg width="163" height="28" viewBox="0 0 163 28" fill="none" xmlns="http://www.w3.org/2000/svg">
<g clip-path="url(#clip0_32200_135)">
<path opacity="0.5" d="M17.1623 14.1711C23.1758 14.1711 27.2264 19.1012 27.2264 25.179V27.932H21.7788C21.7788 21.8541 16.9009 16.924 10.8874 16.924H0L3.50427 14.1711H17.1623Z" fill="#1471FC"/>
<path d="M17.1624 14.1711C23.1758 14.1711 27.2264 9.24098 27.2264 3.16315V0.410187H21.7788C21.7788 6.48801 16.9009 11.4181 10.8875 11.4181L10.3099 14.1711H17.1585H17.1624Z" fill="#1471FC"/>
<path d="M0 11.4181V16.924H3.30135C8.18313 16.924 8.76848 14.1711 15.8863 14.1711L10.8952 11.4181H0Z" fill="#1471FC"/>
<path d="M49.5436 20.5092L48.2052 24.0549H44.057L52.6694 1.48297H58.0936L66.7099 24.0549H62.5617L61.2232 20.5092H49.5436ZM59.7209 16.6401L55.3815 5.25745L51.0421 16.6401H59.7209Z" fill="#282B35"/>
<path d="M80.9416 10.6411C80.048 10.2862 79.0607 10.0929 78.0695 10.0929C75.4862 10.0929 73.0941 11.3826 73.0941 14.2539V24.0589H68.9459V6.80354H72.4541L73.0941 9.28831C74.2726 7.12695 76.7935 6.44857 79.0295 6.44857C79.7007 6.44857 80.368 6.51168 80.9455 6.61028V10.6411H80.9416Z" fill="#282B35"/>
<path d="M98.8727 20.1227C97.4366 22.8007 94.6621 24.4138 91.1188 24.4138C85.7922 24.4138 82.2177 20.8011 82.2177 15.4174C82.2177 10.0337 85.7922 6.45251 91.1188 6.45251C94.6621 6.45251 97.4366 8.06564 98.8727 10.7397L95.1382 12.9326C94.4046 11.5443 92.9373 10.3217 91.0525 10.3217C88.2116 10.3217 86.3619 12.5777 86.3619 15.4174C86.3619 18.2571 88.2116 20.5447 91.0525 20.5447C92.9334 20.5447 94.4006 19.3181 95.1382 17.9337L98.8727 20.1266V20.1227Z" fill="#282B35"/>
<path d="M118.435 13.4493C118.657 14.4827 118.595 15.6107 118.595 16.6756H105.097C105.608 18.8369 107.587 20.5447 109.947 20.5447C112.308 20.5447 113.744 19.5784 114.732 18.2216L118.084 20.1227C116.648 22.8007 113.553 24.4138 110.01 24.4138C104.683 24.4138 100.789 20.8011 100.789 15.4174C100.789 10.0337 104.363 6.45251 109.69 6.45251C114.349 6.45251 117.666 9.19365 118.431 13.4493H118.435ZM114.287 13.4493C113.651 11.71 112.148 10.3217 109.627 10.3217C107.52 10.3217 105.928 11.71 105.288 13.4493H114.287Z" fill="#282B35"/>
<path d="M120.542 10.0298V6.80353H123.094V1.96809H127.242V6.80748H133.845V10.0337H127.242V17.7405C127.242 19.9965 128.167 20.7064 129.701 20.7064C131.075 20.7064 132.924 20.1266 135.094 19.5784V23.6093C132.862 24.1575 130.946 24.4138 129.381 24.4138C124.913 24.4138 123.094 22.1894 123.094 17.7365V10.0298H120.542Z" fill="#282B35"/>
<path d="M140.038 0C141.474 0 142.43 0.934747 142.43 2.38617C142.43 3.83759 141.474 4.80389 140.038 4.80389C138.602 4.80389 137.646 3.83759 137.646 2.38617C137.646 0.934747 138.602 0 140.038 0ZM137.962 6.80353H142.11V24.0549H137.962V6.80353Z" fill="#282B35"/>
<path d="M144.6 6.80354H149.513L153.599 13.0588L157.684 6.80354H162.664L156.408 15.4135L162.917 24.0865H157.942L153.603 17.8312L149.263 24.0865H144.35L150.828 15.4135L144.604 6.80354H144.6Z" fill="#282B35"/>
</g>
<defs>
<clipPath id="clip0_32200_135">
<rect width="162.913" height="27.928" fill="white"/>
</clipPath>
</defs>
</svg>
